<svg width="163" height="33" viewBox="0 0 163 33" fill="none" xmlns="http://www.w3.org/2000/svg">
<path d="M46.1826 26.4382C43.2794 26.4382 40.8509 25.4614 38.8972 23.5076C36.9617 21.5539 35.994 19.1163 35.994 16.1948C35.994 13.2733 36.9617 10.8449 38.8972 8.90937C40.8327 6.93738 43.2611 5.95138 46.1826 5.95138C49.1406 5.95138 51.5417 7.01954 53.3859 9.15587L51.5782 10.9088C50.1723 9.21065 48.3737 8.3616 46.1826 8.3616C44.0098 8.3616 42.193 9.09197 40.7322 10.5527C39.2898 11.9952 38.5685 13.8759 38.5685 16.1948C38.5685 18.5137 39.2898 20.3944 40.7322 21.8369C42.193 23.2976 44.0098 24.028 46.1826 24.028C48.465 24.028 50.4461 23.0694 52.126 21.1522L53.961 22.9325C53.0298 24.0463 51.8886 24.9136 50.5374 25.5344C49.1863 26.1369 47.7347 26.4382 46.1826 26.4382ZM59.7332 7.95076C59.7332 8.44376 59.5598 8.86373 59.2129 9.21065C58.8659 9.55758 58.446 9.73104 57.953 9.73104C57.46 9.73104 57.04 9.55758 56.6931 9.21065C56.3462 8.86373 56.1727 8.44376 56.1727 7.95076C56.1727 7.45777 56.3462 7.0378 56.6931 6.69088C57.04 6.34395 57.46 6.17049 57.953 6.17049C58.446 6.17049 58.8659 6.34395 59.2129 6.69088C59.5598 7.0378 59.7332 7.45777 59.7332 7.95076ZM59.2129 12.5795V26H56.6931V12.5795H59.2129ZM65.2857 26H62.7659V12.5795H65.1761V14.7706H65.2857C65.5413 14.0585 66.0617 13.4559 66.8468 12.9629C67.6503 12.4517 68.4354 12.196 69.2023 12.196C69.9327 12.196 70.5535 12.3056 71.0647 12.5247L70.2978 14.9623C69.9874 14.8345 69.4944 14.7706 68.8188 14.7706C67.8694 14.7706 67.0386 15.154 66.3265 15.9209C65.6326 16.6878 65.2857 17.5825 65.2857 18.605V26ZM78.2956 26.4382C76.3053 26.4382 74.6529 25.7626 73.3382 24.4114C72.0418 23.0237 71.3936 21.3165 71.3936 19.2897C71.3936 17.2264 72.0418 15.5192 73.3382 14.168C74.6529 12.8168 76.3053 12.1413 78.2956 12.1413C79.665 12.1413 80.861 12.4882 81.8835 13.182C82.906 13.8576 83.6729 14.798 84.1842 16.0031L81.8835 16.9617C81.1714 15.2818 79.9207 14.4419 78.1313 14.4419C76.9809 14.4419 75.9858 14.9075 75.1459 15.8387C74.3242 16.77 73.9134 17.9203 73.9134 19.2897C73.9134 20.6592 74.3242 21.8095 75.1459 22.7407C75.9858 23.6719 76.9809 24.1376 78.1313 24.1376C79.9754 24.1376 81.2718 23.2976 82.0205 21.6178L84.2664 22.5764C83.7734 23.7815 82.9973 24.731 81.9383 25.4248C80.8975 26.1004 79.6833 26.4382 78.2956 26.4382ZM89.2637 6.3896V26H86.744V6.3896H89.2637ZM98.4998 26.4382C96.5278 26.4382 94.9027 25.7626 93.6246 24.4114C92.3464 23.0603 91.7073 21.353 91.7073 19.2897C91.7073 17.2447 92.3281 15.5466 93.5698 14.1954C94.8114 12.826 96.4 12.1413 98.3354 12.1413C100.326 12.1413 101.905 12.7895 103.074 14.0859C104.261 15.364 104.854 17.1625 104.854 19.4815L104.827 19.7553H94.2819C94.3184 21.07 94.7566 22.129 95.5965 22.9325C96.4365 23.7359 97.4407 24.1376 98.6093 24.1376C100.216 24.1376 101.476 23.3342 102.389 21.7273L104.635 22.8229C104.032 23.955 103.192 24.8405 102.115 25.4796C101.056 26.1187 99.8509 26.4382 98.4998 26.4382ZM94.4736 17.6738H102.17C102.097 16.7426 101.713 15.9757 101.02 15.3731C100.344 14.7523 99.431 14.4419 98.2807 14.4419C97.3312 14.4419 96.5095 14.7341 95.8157 15.3184C95.1401 15.9027 94.6927 16.6878 94.4736 17.6738ZM119.331 26.4382C118.491 26.4382 117.688 26.3195 116.921 26.0822C116.154 25.8448 115.451 25.4887 114.812 25.014C114.173 24.5393 113.616 23.9641 113.141 23.2885C112.667 22.5947 112.292 21.7913 112.018 20.8783L115.497 19.5088C115.753 20.4948 116.2 21.3165 116.839 21.9738C117.478 22.6129 118.318 22.9325 119.359 22.9325C119.742 22.9325 120.107 22.8868 120.454 22.7955C120.819 22.686 121.139 22.5399 121.413 22.3573C121.705 22.1564 121.933 21.9099 122.098 21.6178C122.262 21.3256 122.344 20.9878 122.344 20.6044C122.344 20.2392 122.28 19.9106 122.152 19.6184C122.025 19.3263 121.805 19.0524 121.495 18.7967C121.203 18.5411 120.81 18.2946 120.317 18.0572C119.843 17.8199 119.249 17.5734 118.537 17.3177L117.332 16.8795C116.802 16.6969 116.264 16.4504 115.716 16.14C115.186 15.8296 114.703 15.4553 114.264 15.0171C113.826 14.5789 113.461 14.0676 113.169 13.4833C112.895 12.8808 112.758 12.2052 112.758 11.4565C112.758 10.6896 112.904 9.97754 113.196 9.32021C113.507 8.64462 113.936 8.06032 114.483 7.56732C115.05 7.05606 115.716 6.66349 116.483 6.3896C117.268 6.09745 118.135 5.95138 119.085 5.95138C120.071 5.95138 120.92 6.08832 121.632 6.36221C122.362 6.61784 122.974 6.95564 123.467 7.3756C123.978 7.7773 124.389 8.22465 124.7 8.71765C125.01 9.21065 125.238 9.67626 125.384 10.1145L122.125 11.4839C121.942 10.9361 121.605 10.4431 121.112 10.0049C120.637 9.56671 119.98 9.34759 119.14 9.34759C118.336 9.34759 117.67 9.53932 117.14 9.92276C116.611 10.2879 116.346 10.7718 116.346 11.3744C116.346 11.9587 116.602 12.4608 117.113 12.8808C117.624 13.2825 118.437 13.675 119.55 14.0585L120.783 14.4693C121.568 14.7432 122.28 15.0627 122.919 15.4279C123.577 15.7748 124.133 16.1948 124.59 16.6878C125.065 17.1808 125.421 17.7468 125.658 18.3859C125.914 19.0067 126.042 19.728 126.042 20.5496C126.042 21.5721 125.832 22.4577 125.412 23.2063C125.01 23.9367 124.49 24.5393 123.85 25.014C123.211 25.4887 122.49 25.8448 121.687 26.0822C120.883 26.3195 120.098 26.4382 119.331 26.4382ZM135.277 12.1413C136.318 12.1413 137.267 12.3238 138.125 12.689C139.002 13.036 139.75 13.529 140.371 14.168C141.01 14.7888 141.503 15.5375 141.85 16.4139C142.215 17.2904 142.398 18.249 142.398 19.2897C142.398 20.3305 142.215 21.2891 141.85 22.1656C141.503 23.042 141.01 23.7998 140.371 24.4388C139.75 25.0597 139.002 25.5526 138.125 25.9178C137.267 26.2648 136.318 26.4382 135.277 26.4382C134.236 26.4382 133.278 26.2648 132.401 25.9178C131.543 25.5526 130.794 25.0597 130.155 24.4388C129.534 23.7998 129.041 23.042 128.676 22.1656C128.329 21.2891 128.156 20.3305 128.156 19.2897C128.156 18.249 128.329 17.2904 128.676 16.4139C129.041 15.5375 129.534 14.7888 130.155 14.168C130.794 13.529 131.543 13.036 132.401 12.689C133.278 12.3238 134.236 12.1413 135.277 12.1413ZM135.277 23.1242C135.733 23.1242 136.172 23.042 136.592 22.8777C137.03 22.6951 137.413 22.4395 137.742 22.1108C138.071 21.7821 138.326 21.3804 138.509 20.9057C138.71 20.4309 138.81 19.8923 138.81 19.2897C138.81 18.6872 138.71 18.1485 138.509 17.6738C138.326 17.1991 138.071 16.7974 137.742 16.4687C137.413 16.14 137.03 15.8935 136.592 15.7292C136.172 15.5466 135.733 15.4553 135.277 15.4553C134.802 15.4553 134.355 15.5466 133.935 15.7292C133.515 15.8935 133.141 16.14 132.812 16.4687C132.483 16.7974 132.219 17.1991 132.018 17.6738C131.835 18.1485 131.744 18.6872 131.744 19.2897C131.744 19.8923 131.835 20.4309 132.018 20.9057C132.219 21.3804 132.483 21.7821 132.812 22.1108C133.141 22.4395 133.515 22.6951 133.935 22.8777C134.355 23.042 134.802 23.1242 135.277 23.1242ZM154.765 15.647H149.698V26H146.11V15.647H143.7V12.5795H146.11V11.2648C146.11 10.4431 146.229 9.72191 146.466 9.1011C146.722 8.46202 147.078 7.93251 147.534 7.51254C147.991 7.07432 148.529 6.74566 149.15 6.52655C149.771 6.28918 150.456 6.17049 151.204 6.17049C151.569 6.17049 151.862 6.18875 152.081 6.22527C152.3 6.26179 152.51 6.31657 152.711 6.3896L152.491 9.75843C152.364 9.70365 152.218 9.658 152.053 9.62148C151.889 9.58496 151.679 9.56671 151.423 9.56671C150.894 9.56671 150.474 9.74017 150.163 10.0871C149.853 10.434 149.698 10.9088 149.698 11.5113V12.5795H154.765V8.47115H158.353V12.5795H161.639V15.647H158.353V20.8509C158.353 21.1613 158.38 21.4535 158.435 21.7273C158.508 21.983 158.636 22.2021 158.818 22.3847C159.074 22.6768 159.439 22.8229 159.914 22.8229C160.224 22.8229 160.471 22.7955 160.653 22.7407C160.836 22.6677 161.009 22.5764 161.174 22.4668L162.187 25.6166C161.767 25.8174 161.311 25.9635 160.818 26.0548C160.343 26.1643 159.813 26.2191 159.229 26.2191C158.554 26.2191 157.942 26.1187 157.394 25.9178C156.865 25.6987 156.417 25.4066 156.052 25.0414C155.194 24.2197 154.765 23.0511 154.765 21.5356V15.647Z" fill="black"/>
<path d="M27.0187 22.5398C28.6076 23.4629 29.1694 25.5302 27.9387 26.8948C26.3288 28.6797 24.3282 30.0907 22.0756 31.0074C18.7887 32.3449 15.1508 32.5541 11.7322 31.6022C8.3136 30.6504 5.30739 28.5912 3.18466 25.7474C1.06194 22.9036 -0.0573268 19.436 0.0022604 15.8878C0.0618476 12.3396 1.29692 8.91151 3.51394 6.14062C5.73095 3.36972 8.80462 1.41266 12.2533 0.576114C15.7019 -0.260431 19.3307 0.0708167 22.5709 1.51795C24.7914 2.5097 26.7435 3.98715 28.2925 5.82512C29.4767 7.23022 28.8458 9.27748 27.2269 10.1467C25.6079 11.016 23.6173 10.3428 22.2398 9.12659C21.5325 8.50213 20.7304 7.9838 19.8572 7.59385C17.9619 6.74734 15.8392 6.55358 13.8219 7.04292C11.8046 7.53226 10.0067 8.67705 8.70983 10.2979C7.41298 11.9187 6.69052 13.924 6.65566 15.9995C6.62081 18.0751 7.27553 20.1035 8.51722 21.767C9.75891 23.4304 11.5174 24.635 13.5171 25.1918C15.5169 25.7486 17.6448 25.6262 19.5675 24.8438C20.4533 24.4834 21.2724 23.9923 22.0003 23.3919C23.4178 22.2227 25.4299 21.6167 27.0187 22.5398Z" fill="#5932EA"/>
<path d="M20.6813 18.8577C21.6534 19.4224 21.9986 20.6963 21.1914 21.4788C20.5136 22.1357 19.7121 22.6616 18.8262 23.0221C17.3066 23.6404 15.6249 23.7372 14.0445 23.2971C12.464 22.8571 11.0743 21.9051 10.0929 20.5904C9.1116 19.2758 8.59416 17.6727 8.62171 16.0323C8.64926 14.392 9.22023 12.8072 10.2452 11.5262C11.2701 10.2452 12.691 9.34049 14.2853 8.95376C15.8796 8.56703 17.5572 8.72016 19.0551 9.38917C19.9284 9.77919 20.7119 10.3317 21.3672 11.0111C22.1477 11.8202 21.7599 13.0817 20.7694 13.6135C19.7789 14.1453 18.5448 13.6842 17.5419 13.1763C17.4936 13.1519 17.4446 13.1285 17.395 13.1064C16.7198 12.8048 15.9637 12.7358 15.245 12.9101C14.5264 13.0844 13.8859 13.4922 13.424 14.0696C12.962 14.647 12.7046 15.3613 12.6922 16.1007C12.6798 16.8401 12.913 17.5626 13.3554 18.1552C13.7977 18.7478 14.4241 19.1769 15.1365 19.3752C15.8488 19.5736 16.6069 19.53 17.2918 19.2513C17.3421 19.2308 17.3919 19.2091 17.441 19.1863C18.4604 18.7124 19.7093 18.2929 20.6813 18.8577Z" fill="#16C098"/>
</svg>
